<svg xmlns="http://www.w3.org/2000/svg" width="630" height="708" viewBox="0 0 630 708" fill="none"><g opacity="0.2"><path fill-rule="evenodd" clip-rule="evenodd" d="M42.6967 200.026C42.6967 210.072 34.5723 218.212 24.5542 218.212C14.5324 218.212 6.41162 210.072 6.41162 200.026C6.41162 189.981 14.5324 181.841 24.5542 181.841C34.5723 181.841 42.6967 189.981 42.6967 200.026" fill="#0081FF"></path><path fill-rule="evenodd" clip-rule="evenodd" d="M42.6967 282.58C42.6967 292.625 34.5723 300.766 24.5542 300.766C14.5324 300.766 6.41162 292.625 6.41162 282.58C6.41162 272.535 14.5324 264.395 24.5542 264.395C34.5723 264.395 42.6967 272.535 42.6967 282.58" fill="#0081FF"></path><path fill-rule="evenodd" clip-rule="evenodd" d="M42.6967 365.135C42.6967 375.18 34.5723 383.32 24.5542 383.32C14.5324 383.32 6.41162 375.18 6.41162 365.135C6.41162 355.089 14.5324 346.949 24.5542 346.949C34.5723 346.949 42.6967 355.089 42.6967 365.135" fill="#0081FF"></path><path fill-rule="evenodd" clip-rule="evenodd" d="M586.288 200.026C586.288 210.072 594.412 218.212 604.43 218.212C614.452 218.212 622.576 210.072 622.576 200.026C622.576 189.981 614.452 181.841 604.43 181.841C594.412 181.841 586.288 189.981 586.288 200.026" fill="#0081FF"></path><path fill-rule="evenodd" clip-rule="evenodd" d="M586.288 282.58C586.288 292.625 594.412 300.766 604.43 300.766C614.452 300.766 622.576 292.625 622.576 282.58C622.576 272.535 614.452 264.395 604.43 264.395C594.412 264.395 586.288 272.535 586.288 282.58" fill="#0081FF"></path><path fill-rule="evenodd" clip-rule="evenodd" d="M586.288 365.135C586.288 375.18 594.412 383.32 604.43 383.32C614.452 383.32 622.576 375.18 622.576 365.135C622.576 355.089 614.452 346.949 604.43 346.949C594.412 346.949 586.288 355.089 586.288 365.135" fill="#0081FF"></path></g><g opacity="0.300105"><path fill-rule="evenodd" clip-rule="evenodd" d="M49.1072 34.9182C49.1072 48.5117 38.1132 59.5318 24.5518 59.5318C10.9904 59.5318 0 48.5117 0 34.9182C0 21.3248 10.9904 10.3047 24.5518 10.3047C38.1132 10.3047 49.1072 21.3248 49.1072 34.9182" fill="#0081FF"></path><path fill-rule="evenodd" clip-rule="evenodd" d="M49.1072 117.472C49.1072 131.065 38.1132 142.086 24.5518 142.086C10.9904 142.086 0 131.065 0 117.472C0 103.878 10.9904 92.8584 24.5518 92.8584C38.1132 92.8584 49.1072 103.878 49.1072 117.472" fill="#0081FF"></path><path fill-rule="evenodd" clip-rule="evenodd" d="M135.954 200.026C135.954 215.963 123.066 228.881 107.167 228.881C91.2676 228.881 78.3799 215.963 78.3799 200.026C78.3799 184.089 91.2676 171.171 107.167 171.171C123.066 171.171 135.954 184.089 135.954 200.026" fill="#0081FF"></path><path fill-rule="evenodd" clip-rule="evenodd" d="M135.954 282.581C135.954 298.518 123.066 311.436 107.167 311.436C91.2676 311.436 78.3799 298.518 78.3799 282.581C78.3799 266.644 91.2676 253.726 107.167 253.726C123.066 253.726 135.954 266.644 135.954 282.581" fill="#0081FF"></path><path fill-rule="evenodd" clip-rule="evenodd" d="M135.954 365.134C135.954 381.071 123.066 393.99 107.167 393.99C91.2676 393.99 78.3799 381.071 78.3799 365.134C78.3799 349.197 91.2676 336.279 107.167 336.279C123.066 336.279 135.954 349.197 135.954 365.134" fill="#0081FF"></path><path fill-rule="evenodd" clip-rule="evenodd" d="M49.1072 447.689C49.1072 461.282 38.1132 472.302 24.5518 472.302C10.9904 472.302 0 461.282 0 447.689C0 434.095 10.9904 423.075 24.5518 423.075C38.1132 423.075 49.1072 434.095 49.1072 447.689" fill="#0081FF"></path><path fill-rule="evenodd" clip-rule="evenodd" d="M49.1072 530.242C49.1072 543.836 38.1132 554.856 24.5518 554.856C10.9904 554.856 0 543.836 0 530.242C0 516.649 10.9904 505.629 24.5518 505.629C38.1132 505.629 49.1072 516.649 49.1072 530.242" fill="#0081FF"></path><path fill-rule="evenodd" clip-rule="evenodd" d="M579.877 34.9182C579.877 48.5117 590.871 59.5318 604.432 59.5318C617.994 59.5318 628.984 48.5117 628.984 34.9182C628.984 21.3248 617.994 10.3047 604.432 10.3047C590.871 10.3047 579.877 21.3248 579.877 34.9182" fill="#0081FF"></path><path fill-rule="evenodd" clip-rule="evenodd" d="M579.877 117.472C579.877 131.065 590.871 142.086 604.432 142.086C617.994 142.086 628.984 131.065 628.984 117.472C628.984 103.878 617.994 92.8584 604.432 92.8584C590.871 92.8584 579.877 103.878 579.877 117.472" fill="#0081FF"></path><path fill-rule="evenodd" clip-rule="evenodd" d="M493.03 200.026C493.03 215.963 505.918 228.881 521.817 228.881C537.717 228.881 550.604 215.963 550.604 200.026C550.604 184.089 537.717 171.171 521.817 171.171C505.918 171.171 493.03 184.089 493.03 200.026" fill="#0081FF"></path><path fill-rule="evenodd" clip-rule="evenodd" d="M493.03 282.581C493.03 298.518 505.918 311.436 521.817 311.436C537.717 311.436 550.604 298.518 550.604 282.581C550.604 266.644 537.717 253.726 521.817 253.726C505.918 253.726 493.03 266.644 493.03 282.581" fill="#0081FF"></path><path fill-rule="evenodd" clip-rule="evenodd" d="M493.03 365.134C493.03 381.071 505.918 393.99 521.817 393.99C537.717 393.99 550.604 381.071 550.604 365.134C550.604 349.197 537.717 336.279 521.817 336.279C505.918 336.279 493.03 349.197 493.03 365.134" fill="#0081FF"></path><path fill-rule="evenodd" clip-rule="evenodd" d="M579.877 447.689C579.877 461.282 590.871 472.302 604.432 472.302C617.994 472.302 628.984 461.282 628.984 447.689C628.984 434.095 617.994 423.075 604.432 423.075C590.871 423.075 579.877 434.095 579.877 447.689" fill="#0081FF"></path><path fill-rule="evenodd" clip-rule="evenodd" d="M579.877 530.242C579.877 543.836 590.871 554.856 604.432 554.856C617.994 554.856 628.984 543.836 628.984 530.242C628.984 516.649 617.994 505.629 604.432 505.629C590.871 505.629 579.877 516.649 579.877 530.242" fill="#0081FF"></path></g><g opacity="0.502715"><path fill-rule="evenodd" clip-rule="evenodd" d="M135.954 34.9186C135.954 50.8556 123.066 63.7737 107.167 63.7737C91.2676 63.7737 78.3799 50.8556 78.3799 34.9186C78.3799 18.9817 91.2676 6.06348 107.167 6.06348C123.066 6.06348 135.954 18.9817 135.954 34.9186" fill="#0081FF"></path><path fill-rule="evenodd" clip-rule="evenodd" d="M135.954 117.472C135.954 133.409 123.066 146.327 107.167 146.327C91.2676 146.327 78.3799 133.409 78.3799 117.472C78.3799 101.535 91.2676 88.6172 107.167 88.6172C123.066 88.6172 135.954 101.535 135.954 117.472" fill="#0081FF"></path><path fill-rule="evenodd" clip-rule="evenodd" d="M222.976 200.027C222.976 217.905 208.515 232.397 190.682 232.397C172.845 232.397 158.384 217.905 158.384 200.027C158.384 182.148 172.845 167.656 190.682 167.656C208.515 167.656 222.976 182.148 222.976 200.027" fill="#0081FF"></path><path fill-rule="evenodd" clip-rule="evenodd" d="M222.976 282.58C222.976 300.459 208.515 314.951 190.682 314.951C172.845 314.951 158.384 300.459 158.384 282.58C158.384 264.701 172.845 250.21 190.682 250.21C208.515 250.21 222.976 264.701 222.976 282.58" fill="#0081FF"></path><path fill-rule="evenodd" clip-rule="evenodd" d="M222.976 365.135C222.976 383.014 208.515 397.505 190.682 397.505C172.845 397.505 158.384 383.014 158.384 365.135C158.384 347.256 172.845 332.765 190.682 332.765C208.515 332.765 222.976 347.256 222.976 365.135" fill="#0081FF"></path><path fill-rule="evenodd" clip-rule="evenodd" d="M135.954 447.689C135.954 463.626 123.066 476.544 107.167 476.544C91.2676 476.544 78.3799 463.626 78.3799 447.689C78.3799 431.752 91.2676 418.834 107.167 418.834C123.066 418.834 135.954 431.752 135.954 447.689" fill="#0081FF"></path><path fill-rule="evenodd" clip-rule="evenodd" d="M135.954 530.243C135.954 546.18 123.066 559.098 107.167 559.098C91.2676 559.098 78.3799 546.18 78.3799 530.243C78.3799 514.306 91.2676 501.388 107.167 501.388C123.066 501.388 135.954 514.306 135.954 530.243" fill="#0081FF"></path><path fill-rule="evenodd" clip-rule="evenodd" d="M493.031 34.9186C493.031 50.8556 505.918 63.7737 521.818 63.7737C537.717 63.7737 550.605 50.8556 550.605 34.9186C550.605 18.9817 537.717 6.06348 521.818 6.06348C505.918 6.06348 493.031 18.9817 493.031 34.9186" fill="#0081FF"></path><path fill-rule="evenodd" clip-rule="evenodd" d="M493.031 117.472C493.031 133.409 505.918 146.327 521.818 146.327C537.717 146.327 550.605 133.409 550.605 117.472C550.605 101.535 537.717 88.6172 521.818 88.6172C505.918 88.6172 493.031 101.535 493.031 117.472" fill="#0081FF"></path><path fill-rule="evenodd" clip-rule="evenodd" d="M406.009 200.027C406.009 217.905 420.47 232.397 438.303 232.397C456.139 232.397 470.6 217.905 470.6 200.027C470.6 182.148 456.139 167.656 438.303 167.656C420.47 167.656 406.009 182.148 406.009 200.027" fill="#0081FF"></path><path fill-rule="evenodd" clip-rule="evenodd" d="M406.009 282.58C406.009 300.459 420.47 314.951 438.303 314.951C456.139 314.951 470.6 300.459 470.6 282.58C470.6 264.701 456.139 250.21 438.303 250.21C420.47 250.21 406.009 264.701 406.009 282.58" fill="#0081FF"></path><path fill-rule="evenodd" clip-rule="evenodd" d="M406.009 365.135C406.009 383.014 420.47 397.505 438.303 397.505C456.139 397.505 470.6 383.014 470.6 365.135C470.6 347.256 456.139 332.765 438.303 332.765C420.47 332.765 406.009 347.256 406.009 365.135" fill="#0081FF"></path><path fill-rule="evenodd" clip-rule="evenodd" d="M493.031 447.689C493.031 463.626 505.918 476.544 521.818 476.544C537.717 476.544 550.605 463.626 550.605 447.689C550.605 431.752 537.717 418.834 521.818 418.834C505.918 418.834 493.031 431.752 493.031 447.689" fill="#0081FF"></path><path fill-rule="evenodd" clip-rule="evenodd" d="M493.031 530.243C493.031 546.18 505.918 559.098 521.818 559.098C537.717 559.098 550.605 546.18 550.605 530.243C550.605 514.306 537.717 501.388 521.818 501.388C505.918 501.388 493.031 514.306 493.031 530.243" fill="#0081FF"></path></g><path fill-rule="evenodd" clip-rule="evenodd" d="M222.975 34.9182C222.975 52.797 208.514 67.2885 190.681 67.2885C172.845 67.2885 158.384 52.797 158.384 34.9182C158.384 17.0393 172.845 2.54785 190.681 2.54785C208.514 2.54785 222.975 17.0393 222.975 34.9182" fill="#0081FF"></path><path fill-rule="evenodd" clip-rule="evenodd" d="M222.975 117.472C222.975 135.351 208.514 149.842 190.681 149.842C172.845 149.842 158.384 135.351 158.384 117.472C158.384 99.593 172.845 85.1016 190.681 85.1016C208.514 85.1016 222.975 99.593 222.975 117.472" fill="#0081FF"></path><path fill-rule="evenodd" clip-rule="evenodd" d="M222.975 447.689C222.975 465.568 208.514 480.059 190.681 480.059C172.845 480.059 158.384 465.568 158.384 447.689C158.384 429.81 172.845 415.318 190.681 415.318C208.514 415.318 222.975 429.81 222.975 447.689" fill="#0081FF"></path><path fill-rule="evenodd" clip-rule="evenodd" d="M222.975 530.242C222.975 548.121 208.514 562.613 190.681 562.613C172.845 562.613 158.384 548.121 158.384 530.242C158.384 512.364 172.845 497.872 190.681 497.872C208.514 497.872 222.975 512.364 222.975 530.242" fill="#0081FF"></path><path fill-rule="evenodd" clip-rule="evenodd" d="M406.009 34.9182C406.009 52.797 420.47 67.2885 438.303 67.2885C456.139 67.2885 470.6 52.797 470.6 34.9182C470.6 17.0393 456.139 2.54785 438.303 2.54785C420.47 2.54785 406.009 17.0393 406.009 34.9182" fill="#0081FF"></path><path fill-rule="evenodd" clip-rule="evenodd" d="M406.009 117.472C406.009 135.351 420.47 149.842 438.303 149.842C456.139 149.842 470.6 135.351 470.6 117.472C470.6 99.593 456.139 85.1016 438.303 85.1016C420.47 85.1016 406.009 99.593 406.009 117.472" fill="#0081FF"></path><path fill-rule="evenodd" clip-rule="evenodd" d="M406.009 447.689C406.009 465.568 420.47 480.059 438.303 480.059C456.139 480.059 470.6 465.568 470.6 447.689C470.6 429.81 456.139 415.318 438.303 415.318C420.47 415.318 406.009 429.81 406.009 447.689" fill="#0081FF"></path><path fill-rule="evenodd" clip-rule="evenodd" d="M406.009 530.242C406.009 548.121 420.47 562.613 438.303 562.613C456.139 562.613 470.6 548.121 470.6 530.242C470.6 512.364 456.139 497.872 438.303 497.872C420.47 497.872 406.009 512.364 406.009 530.242" fill="#0081FF"></path><path fill-rule="evenodd" clip-rule="evenodd" d="M308.316 34.9182C308.316 54.2024 292.719 69.8364 273.481 69.8364C254.242 69.8364 238.645 54.2024 238.645 34.9182C238.645 15.634 254.242 0 273.481 0C292.719 0 308.316 15.634 308.316 34.9182" fill="#0081FF"></path><path fill-rule="evenodd" clip-rule="evenodd" d="M308.316 117.472C308.316 136.756 292.719 152.39 273.481 152.39C254.242 152.39 238.645 136.756 238.645 117.472C238.645 98.1877 254.242 82.5537 273.481 82.5537C292.719 82.5537 308.316 98.1877 308.316 117.472" fill="#0081FF"></path><path fill-rule="evenodd" clip-rule="evenodd" d="M308.316 200.027C308.316 219.311 292.719 234.945 273.481 234.945C254.242 234.945 238.645 219.311 238.645 200.027C238.645 180.742 254.242 165.108 273.481 165.108C292.719 165.108 308.316 180.742 308.316 200.027" fill="#0081FF"></path><path fill-rule="evenodd" clip-rule="evenodd" d="M308.316 282.58C308.316 301.865 292.719 317.498 273.481 317.498C254.242 317.498 238.645 301.865 238.645 282.58C238.645 263.296 254.242 247.662 273.481 247.662C292.719 247.662 308.316 263.296 308.316 282.58" fill="#0081FF"></path><path fill-rule="evenodd" clip-rule="evenodd" d="M308.316 365.134C308.316 384.418 292.719 400.052 273.481 400.052C254.242 400.052 238.645 384.418 238.645 365.134C238.645 345.85 254.242 330.216 273.481 330.216C292.719 330.216 308.316 345.85 308.316 365.134" fill="#0081FF"></path><path fill-rule="evenodd" clip-rule="evenodd" d="M308.316 447.689C308.316 466.973 292.719 482.607 273.481 482.607C254.242 482.607 238.645 466.973 238.645 447.689C238.645 428.404 254.242 412.771 273.481 412.771C292.719 412.771 308.316 428.404 308.316 447.689" fill="#0081FF"></path><path fill-rule="evenodd" clip-rule="evenodd" d="M308.316 530.242C308.316 549.527 292.719 565.161 273.481 565.161C254.242 565.161 238.645 549.527 238.645 530.242C238.645 510.958 254.242 495.324 273.481 495.324C292.719 495.324 308.316 510.958 308.316 530.242" fill="#0081FF"></path><path fill-rule="evenodd" clip-rule="evenodd" d="M320.667 34.9182C320.667 54.2024 336.265 69.8364 355.503 69.8364C374.742 69.8364 390.339 54.2024 390.339 34.9182C390.339 15.634 374.742 0 355.503 0C336.265 0 320.667 15.634 320.667 34.9182" fill="#0081FF"></path><path fill-rule="evenodd" clip-rule="evenodd" d="M320.667 117.472C320.667 136.756 336.265 152.39 355.503 152.39C374.742 152.39 390.339 136.756 390.339 117.472C390.339 98.1877 374.742 82.5537 355.503 82.5537C336.265 82.5537 320.667 98.1877 320.667 117.472" fill="#0081FF"></path><path fill-rule="evenodd" clip-rule="evenodd" d="M320.667 200.027C320.667 219.311 336.265 234.945 355.503 234.945C374.742 234.945 390.339 219.311 390.339 200.027C390.339 180.742 374.742 165.108 355.503 165.108C336.265 165.108 320.667 180.742 320.667 200.027" fill="#0081FF"></path><path fill-rule="evenodd" clip-rule="evenodd" d="M320.667 282.58C320.667 301.865 336.265 317.498 355.503 317.498C374.742 317.498 390.339 301.865 390.339 282.58C390.339 263.296 374.742 247.662 355.503 247.662C336.265 247.662 320.667 263.296 320.667 282.58" fill="#0081FF"></path><path fill-rule="evenodd" clip-rule="evenodd" d="M320.667 365.134C320.667 384.418 336.265 400.052 355.503 400.052C374.742 400.052 390.339 384.418 390.339 365.134C390.339 345.85 374.742 330.216 355.503 330.216C336.265 330.216 320.667 345.85 320.667 365.134" fill="#0081FF"></path><path fill-rule="evenodd" clip-rule="evenodd" d="M320.667 447.689C320.667 466.973 336.265 482.607 355.503 482.607C374.742 482.607 390.339 466.973 390.339 447.689C390.339 428.404 374.742 412.771 355.503 412.771C336.265 412.771 320.667 428.404 320.667 447.689" fill="#0081FF"></path><path fill-rule="evenodd" clip-rule="evenodd" d="M320.667 530.242C320.667 549.527 336.265 565.161 355.503 565.161C374.742 565.161 390.339 549.527 390.339 530.242C390.339 510.958 374.742 495.324 355.503 495.324C336.265 495.324 320.667 510.958 320.667 530.242" fill="#0081FF"></path><path d="M14.9041 624H10.4057C5.21912 624 1 628.258 1 633.501V702.236C1 704.713 3.00483 706.732 5.46847 706.732H9.96687C15.1535 706.732 19.3726 702.474 19.3726 697.231V628.497C19.3726 626.02 17.3678 624 14.9041 624V624Z" fill="#0081FF" stroke="#0081FF" stroke-width="2" stroke-miterlimit="10"></path><path d="M174.253 630.675C171.39 626.746 165.516 624.01 159.96 624.01C155.422 624.01 149.008 626.099 145.667 630.675L94.6184 700.574C93.7507 701.768 93.631 703.32 94.2993 704.633C94.9576 705.926 96.2742 706.732 97.7204 706.732H107.196C110.946 706.732 114.507 704.912 116.741 701.857L159.97 642.683L203.188 701.857C205.423 704.912 208.993 706.732 212.734 706.732H222.209C223.656 706.732 224.972 705.926 225.63 704.633C226.299 703.32 226.179 701.768 225.311 700.574L174.253 630.675Z" fill="#0081FF" stroke="#0081FF" stroke-width="2" stroke-miterlimit="10"></path><path d="M420.568 624.03H417.027C414.833 624.02 412.369 624.01 410.753 624C408.12 624 405.557 624.875 403.482 626.497L360.453 660.302C358.488 661.844 356.952 661.844 354.987 660.302C337.323 646.424 325.723 637.799 318.801 632.645C315.768 630.387 313.584 628.765 312.068 627.581C309.136 625.293 305.495 624.03 301.794 624.03H293.655C291.192 624.03 289.187 626.049 289.187 628.527V702.265C289.187 704.743 291.192 706.762 293.655 706.762H298.154C303.341 706.762 307.55 702.504 307.55 697.261V647.469L341.731 674.32C345.522 677.295 351.546 679.215 357.092 679.215C362.638 679.215 368.662 677.295 372.452 674.32L406.644 647.469V697.261C406.644 702.494 410.863 706.762 416.04 706.762H420.538C422.992 706.762 424.997 704.743 424.997 702.265V628.527C424.997 626.059 423.002 624.04 420.558 624.03H420.568Z" fill="#0081FF" stroke="#0081FF" stroke-width="2" stroke-miterlimit="10"></path><path d="M626.278 695.838L587.338 665.406L626.287 634.814C627.734 633.68 628.592 631.899 628.592 630.059C628.592 628.437 627.963 626.915 626.826 625.771C625.689 624.637 624.193 624.01 622.587 624.01H617.141C613.441 624.02 609.8 625.283 606.888 627.581L574.79 652.791C572.556 654.542 569.773 655.507 566.961 655.507H556.867C554.054 655.507 551.271 654.542 549.037 652.791L516.94 627.581C514.027 625.283 510.386 624.02 506.686 624.02H501.23C497.929 624.02 495.236 626.726 495.236 630.059C495.236 631.899 496.093 633.68 497.54 634.824L536.479 665.406L497.54 695.848C496.073 697.002 495.226 698.743 495.226 700.693C495.226 704.026 497.919 706.742 501.22 706.742H506.576C510.267 706.742 513.917 705.479 516.85 703.19L549.136 677.941C551.371 676.2 554.144 675.235 556.946 675.235H566.841C569.654 675.235 572.416 676.19 574.651 677.941L606.947 703.19C609.87 705.479 613.52 706.742 617.221 706.742H622.587C625.888 706.742 628.582 704.026 628.582 700.624C628.582 698.743 627.744 697.002 626.268 695.848L626.278 695.838Z" fill="#0081FF" stroke="#0081FF" stroke-width="2" stroke-miterlimit="10"></path></svg>