<svg width="133" height="24" viewBox="0 0 133 24" fill="none" xmlns="http://www.w3.org/2000/svg">
<path fill-rule="evenodd" clip-rule="evenodd" d="M2.09815e-06 10.2581V0L19.8587 3.4722e-06L19.8587 10.2581H16.6813V13.1613L11.1209 10.2581V13.1613L5.56043 10.2581V13.1613L2.09815e-06 10.2581ZM19.8587 21.871H16.6813H11.1209H5.56043H2.09815e-06V10.2581L0 12L0 12L1.53716e-07 24L19.8587 24L19.8587 21.871Z" fill="black"/>
<path fill-rule="evenodd" clip-rule="evenodd" d="M118.16 7.27181L120.41 8.44658V17.2019H118.16V7.27181ZM127.539 6.58057C130.618 6.58057 133.001 8.87003 133.001 11.9854C133.001 15.1008 130.618 17.4193 127.539 17.4193C124.475 17.4193 122.106 15.1008 122.106 11.9854C122.106 8.87003 124.475 6.58057 127.539 6.58057ZM127.539 8.55124C125.6 8.55124 124.415 10.0727 124.415 11.9854C124.415 13.8981 125.6 15.4486 127.539 15.4486C129.493 15.4486 130.677 13.8981 130.677 11.9854C130.677 10.0727 129.493 8.55124 127.539 8.55124ZM34.5679 17.2019H32.3623L27.4923 9.94231V17.2499H25.4199V6.79792H27.8475L32.4955 13.6953V6.79792H34.5679V17.2019ZM38.7178 13.2316V17.2019H36.4678V6.79792H43.3361V8.69615H38.7178V11.3334H42.6256V13.2316H38.7178ZM49.7564 17.2019V8.78309H53.1166V6.79792H44.1611V8.78309H47.5212V17.2019H49.7564ZM56.1797 12.3187V14.1155H51.6649V12.3187H56.1797ZM62.8404 17.2019H64.824L67.6217 10.2321V17.2019H69.6792V6.79792H66.9851L63.9062 14.5067L60.8125 6.79792H58.1184V17.2019H60.0428V10.2901L62.8404 17.2019ZM81.913 17.2019H79.5002L78.7008 14.9704H74.5709L73.7568 17.2019H71.492L75.4887 6.79792H77.9459L81.913 17.2019ZM76.6581 9.20331L75.1778 13.2171H78.094L76.6581 9.20331ZM89.5416 17.2019H92.4133L88.091 11.7826L92.2949 6.79792H89.6749L85.8558 11.3624V6.79792H83.6058V17.2019H85.8558V12.4346L89.5416 17.2019ZM96.3809 15.2892H101.281V17.2019H94.1309V6.79792H101.177V8.71064H96.3809V10.8987H100.748V12.7969H96.3809V15.2892ZM109.122 17.2019H111.86L109.077 13.1881C110.483 12.7389 111.475 11.6811 111.475 10.1742C111.475 8.00062 109.891 6.79792 107.242 6.79792H103.067V17.2019H105.317V13.5214H106.724L109.122 17.2019ZM107.123 8.6237C108.529 8.6237 109.24 9.20331 109.24 10.1742C109.24 11.1305 108.529 11.7101 107.123 11.7101H105.317V8.6237H107.123ZM114.983 14.6194C115.797 14.6194 116.359 15.1845 116.359 15.9959C116.359 16.7929 115.797 17.358 114.983 17.358C114.168 17.358 113.591 16.7929 113.591 15.9959C113.591 15.1845 114.168 14.6194 114.983 14.6194Z" fill="black"/>
</svg>
